<svg width="24" height="17" viewBox="0 0 24 17" fill="none" xmlns="http://www.w3.org/2000/svg">
<path fill-rule="evenodd" clip-rule="evenodd" d="M0 1C0 0.447715 0.447715 0 1 0H5C5.47663 0 5.88701 0.336385 5.98055 0.803743L6.82043 5H23C23.298 5 23.5805 5.13293 23.7705 5.36256C23.9605 5.59218 24.0381 5.89458 23.9823 6.18733L22.3809 14.5847C22.2438 15.2754 21.868 15.8958 21.3196 16.3373C20.7739 16.7764 20.0917 17.011 19.3914 17H9.68861C8.9883 17.011 8.30617 16.7765 7.76052 16.3373C7.2122 15.896 6.83659 15.2758 6.69931 14.5856C6.69926 14.5853 6.69936 14.5858 6.69931 14.5856L5.02879 6.2392C5.02201 6.21159 5.01638 6.18353 5.01195 6.15508L4.18032 2H1C0.447715 2 0 1.55228 0 1ZM7.22073 7L8.66084 14.1952C8.70657 14.4254 8.83181 14.6322 9.01457 14.7793C9.19744 14.9265 9.42624 15.0047 9.66083 15.0002L9.68 15H19.4L19.4192 15.0002C19.6537 15.0047 19.8825 14.9265 20.0655 14.7792C20.2474 14.6328 20.3723 14.4272 20.4185 14.1984C20.4187 14.1974 20.4189 14.1963 20.4191 14.1953L21.7913 7H7.22073Z" fill="black"/>
</svg>
